<?xml version="1.0" encoding="UTF-8"?>
<svg width="10px" height="13px" viewBox="0 0 10 13" version="1.1" xmlns="http://www.w3.org/2000/svg" xmlns:xlink="http://www.w3.org/1999/xlink">
    <title>Artboard</title>
    <g id="Artboard" stroke="none" stroke-width="1" fill="none" fill-rule="evenodd">
        <path d="M7.52,1.56 C7.796,1.56 8.02,1.784 8.02,2.06 L8.02,2.06 L8.02,12.2 C8.02,12.476 7.796,12.7 7.52,12.7 L7.52,12.7 L0.5,12.7 C0.224,12.7 0,12.476 0,12.2 L0,12.2 L0,2.06 C0,1.784 0.224,1.56 0.5,1.56 L0.5,1.56 Z M7.02,2.56 L1,2.56 L1,11.7 L7.02,11.7 L7.02,2.56 Z M9.08,0 C9.356,0 9.58,0.224 9.58,0.5 L9.58,0.5 L9.58,10.64 L8.58,10.64 L8.58,1 L2.06,1 L2.06,0 Z M5.407,5.026 L6.114,5.733 L4.717,7.13 L6.114,8.526 L5.407,9.233 L4.01,7.837 L2.614,9.233 L1.907,8.526 L3.303,7.13 L1.907,5.733 L2.614,5.026 L4.01,6.423 L5.407,5.026 Z" id="Combined-Shape" fill="#000000" fill-rule="nonzero"></path>
    </g>
</svg>